<?xml version="1.0" encoding="UTF-8"?>
<svg width="216px" height="192px" viewBox="0 0 216 192" version="1.1" xmlns="http://www.w3.org/2000/svg" xmlns:xlink="http://www.w3.org/1999/xlink">
    <title>lombardi</title>
    <g id="Page-1" stroke="none" stroke-width="1" fill="none" fill-rule="evenodd">
        <g id="Artboard" transform="translate(-2, -2)" fill="#5492F7" fill-rule="nonzero">
            <g id="lombardi" transform="translate(2, 2)">
                <path d="M56,80 L56,112 C56,116.418278 52.418278,120 48,120 L16,120 C11.581722,120 8,116.418278 8,112 L8,80 C8,75.581722 11.581722,72 16,72 L48,72 C52.418278,72 56,75.581722 56,80 Z M200,8 L152,8 C147.581722,8 144,11.581722 144,16 L144,64 C144,68.418278 147.581722,72 152,72 L200,72 C204.418278,72 208,68.418278 208,64 L208,16 C208,11.581722 204.418278,8 200,8 Z M200,120 L152,120 C147.581722,120 144,123.581722 144,128 L144,176 C144,180.418278 147.581722,184 152,184 L200,184 C204.418278,184 208,180.418278 208,176 L208,128 C208,123.581722 204.418278,120 200,120 Z" id="Shape" opacity="0.2"></path>
                <path d="M152,80 L200,80 C208.836556,80 216,72.836556 216,64 L216,16 C216,7.163444 208.836556,0 200,0 L152,0 C143.163444,0 136,7.163444 136,16 L136,32 L128,32 C110.326888,32 96,46.326888 96,64 L96,88 L64,88 L64,80 C64,71.163444 56.836556,64 48,64 L16,64 C7.163444,64 0,71.163444 0,80 L0,112 C0,120.836556 7.163444,128 16,128 L48,128 C56.836556,128 64,120.836556 64,112 L64,104 L96,104 L96,128 C96,145.673112 110.326888,160 128,160 L136,160 L136,176 C136,184.836556 143.163444,192 152,192 L200,192 C208.836556,192 216,184.836556 216,176 L216,128 C216,119.163444 208.836556,112 200,112 L152,112 C143.163444,112 136,119.163444 136,128 L136,144 L128,144 C119.163444,144 112,136.836556 112,128 L112,64 C112,55.163444 119.163444,48 128,48 L136,48 L136,64 C136,72.836556 143.163444,80 152,80 Z M48,112 L16,112 L16,80 L48,80 L48,112 Z M152,128 L200,128 L200,176 L152,176 L152,128 Z M152,16 L200,16 L200,64 L152,64 L152,16 Z" id="Shape"></path>
            </g>
        </g>
    </g>
</svg>